<?xml version="1.0" encoding="UTF-8" standalone="no"?>
<svg
   width="40"
   height="40"
   viewBox="0 0.5 16 16"
   fill="currentColor"
   version="1.1"
   id="svg1"
   xmlns="http://www.w3.org/2000/svg"
   xmlns:svg="http://www.w3.org/2000/svg">
  <defs
     id="defs1" />
  <path
     d="M 16,0.66 V 16.34 A 0.16,0.16 0 0 1 15.84,16.5 H 9.6 v -3.2 h 3.2 v -8 H 9.6 v 4.8 H 6.4 V 5.3 H 3.2 v 8 h 3.2 v 3.2 H 0.32 A 0.32,0.32 0 0 1 0,16.18 V 0.66 A 0.16,0.16 0 0 1 0.16,0.5 H 15.84 A 0.16,0.16 0 0 1 16,0.66"
     id="path1" />
  <path
     style="fill:#ff0000;stroke-width:0.0198265"
     d="M 0.19826518,16.462099 C 0.12534956,16.429691 0.0592075,16.359862 0.03106047,16.285574 0.0162121,16.246385 0.00991326,13.903126 0.00991326,8.418502 V 0.60724344 L 0.05857835,0.55857835 0.10724344,0.50991326 H 8 15.892756 l 0.04867,0.0486651 0.04867,0.0486651 V 8.5 16.392756 l -0.04867,0.04867 -0.04867,0.04866 H 12.749352 9.605948 v -1.586122 -1.586121 h 1.605948 1.605948 V 9.302974 5.288104 H 11.201983 9.5861216 V 7.6871128 10.086122 H 8 6.4138784 V 7.6871128 5.288104 H 4.7980172 3.1821561 v 4.01487 4.01487 H 4.788104 6.394052 v 1.586121 1.586122 l -3.0681536,-7.6e-4 c -2.51258268,-6.4e-4 -3.07892402,-0.0056 -3.12763322,-0.02721 z"
     id="path2" />
  <path
     style="fill:#ffffff;stroke-width:0.0198265"
     d="M 1.9989672,16.47052 C 0.22025701,16.460399 0.21078208,16.460133 0.15510114,16.418622 0.12431844,16.395672 0.08407146,16.351063 0.06566342,16.319489 0.03447535,16.265994 0.03122218,15.729295 0.01793194,8.444864 L 0.00366964,0.62764582 0.06006711,0.56877954 0.11646458,0.50991326 H 7.997668 15.878871 l 0.05561,0.0532757 0.05561,0.0532757 V 8.5 16.383536 l -0.05561,0.05327 -0.05561,0.05328 H 12.74241 9.605948 v -1.586122 -1.586121 h 1.605948 1.605948 V 9.302974 5.288104 H 11.201983 9.5861216 V 7.6871128 10.086122 H 8 6.4138784 V 7.6871128 5.288104 H 4.7980172 3.1821561 v 4.01487 4.01487 H 4.788104 6.394052 v 1.586121 1.586122 l -1.3035936,-0.0047 c -0.7169764,-0.0026 -2.1081474,-0.0093 -3.0914912,-0.01487 z"
     id="path3" />
  <path
     style="fill:#ffffff;stroke-width:0.0198265"
     d="M 3.3115811,16.46864 C 1.708911,16.460534 0.35025556,16.447982 0.29234676,16.440747 0.14578747,16.422436 0.08741984,16.368033 0.06696023,16.230671 0.05816407,16.171614 0.0417485,12.639687 0.0304812,8.3819428 L 0.0099952,0.64058886 0.07332308,0.57525106 0.13665098,0.50991326 H 8 15.863349 l 0.06337,0.0653801 0.06337,0.0653801 V 8.5020113 16.363349 l -0.06538,0.06337 -0.06538,0.06337 H 12.732639 9.60595 v -1.586122 -1.586121 h 1.605948 1.605948 V 9.302974 5.288104 H 11.201983 9.5861216 V 7.6871128 10.086122 H 8 6.4138784 V 7.6871128 5.288104 H 4.7980172 3.1821561 v 4.01487 4.01487 H 4.788104 6.394052 v 1.586121 1.586122 l -0.084263,-0.0034 c -0.046344,-0.0018 -1.395538,-0.01 -2.9982081,-0.01809 z"
     id="path4" />
  <path
     style="fill:#000000;stroke-width:0.0198265"
     d="M 3.3115811,16.46864 C 1.708911,16.460534 0.35025556,16.447982 0.29234676,16.440747 0.14577177,16.422434 0.08741222,16.368032 0.06698706,16.230671 0.05820564,16.171614 0.04168637,12.639794 0.03027755,8.3821804 L 0.00953425,0.64106443 0.07309261,0.57548885 0.13665098,0.50991326 H 8 15.863349 l 0.06337,0.0653801 0.06337,0.0653801 V 8.5020113 16.363349 l -0.06538,0.06337 -0.06538,0.06337 H 12.732639 9.60595 v -1.586122 -1.586121 h 1.605948 1.605948 V 9.302974 5.288104 H 11.201983 9.5861216 V 7.6871128 10.086122 H 8 6.4138784 V 7.6871128 5.288104 H 4.7980172 3.1821561 v 4.01487 4.01487 H 4.788104 6.394052 v 1.586121 1.586122 l -0.084263,-0.0034 c -0.046344,-0.0018 -1.395538,-0.01 -2.9982081,-0.01809 z"
     id="path5" />
  <path
     style="fill:#ffffff;stroke-width:0.0198265"
     d="m 9.605948,14.903965 v -1.586121 h 1.605948 1.605948 V 9.302974 5.288104 H 11.201983 9.5861216 V 7.6871128 10.086122 H 8 6.4138784 V 7.6871128 5.288104 H 4.7980172 3.1821561 v 4.01487 4.01487 H 4.788104 6.394052 v 1.576208 1.576208 l -1.1449812,-0.001 C 4.6193308,16.4687 3.2415724,16.460848 2.1873852,16.451788 0.37477292,16.436212 0.26656141,16.433305 0.19482018,16.398266 0.13832687,16.370674 0.11274037,16.342165 0.0946011,16.2866 0.06867877,16.207195 0.03245862,9.1354876 0.02863411,3.4070509 L 0.02678921,0.64371761 0.09163335,0.57681544 0.15647749,0.50991326 H 7.9998656 15.843254 l 0.07342,0.0751854 0.07342,0.0751854 V 8.5017688 16.343254 l -0.07519,0.07342 -0.07519,0.07342 H 12.722832 9.605948 Z"
     id="path6" />
</svg>
